# xmcd
#
# Track frame offsets:
#       183
#       13185
#       22573
#       33125
#       43635
#       53970
#       63058
#       74063
#       84295
#       94155
#       104303
#       114555
#
# Disc length: 1650 seconds
#
# Revision: 0
# Processed by: cddbd v1.4PL0 Copyright (c) Steve Scherf et al.
# Submitted via: CD-DA_X-Tractor v0.23
#
DISCID=8e06700c
DTITLE=MILTON BANANA TRIO - BALANCANDO
DYEAR=2003
DGENRE=Bossa Nova
TTITLE0=Cidade Vazia
TTITLE1=Barquinho diferente
TTITLE2=Sao Salvador
TTITLE3=Amanhá
TTITLE4=Improviso
TTITLE5=A Resposta
TTITLE6=Somho de um carnaval
TTITLE7=Feitinho Pro Poeta
TTITLE8=Aruanda
TTITLE9=Tristeza
TTITLE10=Ora bolas
TTITLE11=Encanto triste
EXTD=
EXTT0=
EXTT1=
EXTT2=
EXTT3=
EXTT4=
EXTT5=
EXTT6=
EXTT7=
EXTT8=
EXTT9=
EXTT10=
EXTT11=
PLAYORDER=
